<mxfile host="app.diagrams.net" modified="2022-10-27T09:28:45.035Z" agent="5.0 (Windows NT 10.0; Win64; x64) AppleWebKit/537.36 (KHTML, like Gecko) Chrome/106.0.0.0 Safari/537.36" etag="_noakyu3Bt0ZpNeRvrUN" version="20.5.1" type="github">
  <diagram id="dN5e9zIanpDWJpizDvh4" name="第 1 页">
    <mxGraphModel dx="534" dy="515" grid="0" gridSize="10" guides="1" tooltips="1" connect="1" arrows="1" fold="1" page="0" pageScale="1" pageWidth="827" pageHeight="1169" math="0" shadow="0">
      <root>
        <mxCell id="0" />
        <mxCell id="1" parent="0" />
        <mxCell id="EV_o93qOQ871rjCAl6vP-1" value="" style="rounded=0;whiteSpace=wrap;html=1;fillColor=#dae8fc;strokeColor=#6c8ebf;" parent="1" vertex="1">
          <mxGeometry x="613" y="43" width="515" height="101" as="geometry" />
        </mxCell>
        <mxCell id="EV_o93qOQ871rjCAl6vP-2" value="" style="rounded=0;whiteSpace=wrap;html=1;fillColor=#dae8fc;strokeColor=#6c8ebf;" parent="1" vertex="1">
          <mxGeometry x="610" y="220" width="518" height="186" as="geometry" />
        </mxCell>
        <mxCell id="EV_o93qOQ871rjCAl6vP-3" value="" style="rounded=0;whiteSpace=wrap;html=1;fillColor=#dae8fc;strokeColor=#6c8ebf;" parent="1" vertex="1">
          <mxGeometry x="613" y="457" width="515" height="101" as="geometry" />
        </mxCell>
        <mxCell id="EV_o93qOQ871rjCAl6vP-4" value="" style="endArrow=none;dashed=1;html=1;rounded=0;" parent="1" edge="1">
          <mxGeometry width="50" height="50" relative="1" as="geometry">
            <mxPoint x="440" y="10" as="sourcePoint" />
            <mxPoint x="1280" y="10" as="targetPoint" />
          </mxGeometry>
        </mxCell>
        <mxCell id="EV_o93qOQ871rjCAl6vP-5" value="" style="endArrow=none;dashed=1;html=1;rounded=0;" parent="1" edge="1">
          <mxGeometry width="50" height="50" relative="1" as="geometry">
            <mxPoint x="430" y="189.9999999999999" as="sourcePoint" />
            <mxPoint x="1270" y="189.9999999999999" as="targetPoint" />
          </mxGeometry>
        </mxCell>
        <mxCell id="EV_o93qOQ871rjCAl6vP-6" value="" style="endArrow=none;dashed=1;html=1;rounded=0;" parent="1" edge="1">
          <mxGeometry width="50" height="50" relative="1" as="geometry">
            <mxPoint x="440" y="429.9999999999999" as="sourcePoint" />
            <mxPoint x="1280" y="429.9999999999999" as="targetPoint" />
          </mxGeometry>
        </mxCell>
        <mxCell id="EV_o93qOQ871rjCAl6vP-7" value="" style="endArrow=none;dashed=1;html=1;rounded=0;" parent="1" edge="1">
          <mxGeometry width="50" height="50" relative="1" as="geometry">
            <mxPoint x="440" y="599.9999999999999" as="sourcePoint" />
            <mxPoint x="1280" y="599.9999999999999" as="targetPoint" />
          </mxGeometry>
        </mxCell>
        <mxCell id="EV_o93qOQ871rjCAl6vP-8" value="&lt;font style=&quot;font-size: 26px;&quot;&gt;设备类型&lt;/font&gt;" style="text;html=1;strokeColor=none;fillColor=none;align=center;verticalAlign=middle;whiteSpace=wrap;rounded=0;" parent="1" vertex="1">
          <mxGeometry x="420" y="70" width="120" height="60" as="geometry" />
        </mxCell>
        <mxCell id="EV_o93qOQ871rjCAl6vP-9" value="&lt;font style=&quot;font-size: 26px;&quot;&gt;核心组件&lt;/font&gt;" style="text;html=1;strokeColor=none;fillColor=none;align=center;verticalAlign=middle;whiteSpace=wrap;rounded=0;" parent="1" vertex="1">
          <mxGeometry x="420" y="283" width="120" height="60" as="geometry" />
        </mxCell>
        <mxCell id="EV_o93qOQ871rjCAl6vP-11" value="&lt;font style=&quot;font-size: 26px;&quot;&gt;传输层&lt;/font&gt;" style="text;html=1;strokeColor=none;fillColor=none;align=center;verticalAlign=middle;whiteSpace=wrap;rounded=0;" parent="1" vertex="1">
          <mxGeometry x="420" y="477.5" width="120" height="60" as="geometry" />
        </mxCell>
        <mxCell id="EV_o93qOQ871rjCAl6vP-12" value="PCI" style="rounded=0;whiteSpace=wrap;html=1;labelBackgroundColor=none;fontSize=26;fillColor=#fff2cc;strokeColor=#d6b656;" parent="1" vertex="1">
          <mxGeometry x="650" y="480" width="120" height="60" as="geometry" />
        </mxCell>
        <mxCell id="EV_o93qOQ871rjCAl6vP-13" value="MMIO" style="rounded=0;whiteSpace=wrap;html=1;labelBackgroundColor=none;fontSize=26;fillColor=#fff2cc;strokeColor=#d6b656;" parent="1" vertex="1">
          <mxGeometry x="810.5" y="480" width="120" height="60" as="geometry" />
        </mxCell>
        <mxCell id="EV_o93qOQ871rjCAl6vP-14" value="&lt;font style=&quot;font-size: 23px;&quot;&gt;channel I/O&lt;/font&gt;" style="rounded=0;whiteSpace=wrap;html=1;labelBackgroundColor=none;fontSize=26;fillColor=#fff2cc;strokeColor=#d6b656;" parent="1" vertex="1">
          <mxGeometry x="970" y="480" width="120" height="60" as="geometry" />
        </mxCell>
        <mxCell id="EV_o93qOQ871rjCAl6vP-15" value="&lt;font style=&quot;font-size: 21px;&quot;&gt;Dev status&lt;/font&gt;" style="rounded=0;whiteSpace=wrap;html=1;labelBackgroundColor=none;fontSize=26;fillColor=#fff2cc;strokeColor=#d6b656;" parent="1" vertex="1">
          <mxGeometry x="640" y="240" width="120" height="60" as="geometry" />
        </mxCell>
        <mxCell id="EV_o93qOQ871rjCAl6vP-16" value="&lt;font style=&quot;font-size: 21px;&quot;&gt;Feature bits&lt;/font&gt;" style="rounded=0;whiteSpace=wrap;html=1;labelBackgroundColor=none;fontSize=26;fillColor=#fff2cc;strokeColor=#d6b656;" parent="1" vertex="1">
          <mxGeometry x="809" y="240" width="120" height="60" as="geometry" />
        </mxCell>
        <mxCell id="EV_o93qOQ871rjCAl6vP-17" value="&lt;font style=&quot;font-size: 21px;&quot;&gt;notifications&lt;/font&gt;" style="rounded=0;whiteSpace=wrap;html=1;labelBackgroundColor=none;fontSize=26;fillColor=#fff2cc;strokeColor=#d6b656;" parent="1" vertex="1">
          <mxGeometry x="970" y="240" width="120" height="60" as="geometry" />
        </mxCell>
        <mxCell id="EV_o93qOQ871rjCAl6vP-18" value="&lt;font style=&quot;font-size: 21px; line-height: 0.3;&quot;&gt;Dev cfg space&lt;/font&gt;" style="rounded=0;whiteSpace=wrap;html=1;labelBackgroundColor=none;fontSize=26;fillColor=#fff2cc;strokeColor=#d6b656;" parent="1" vertex="1">
          <mxGeometry x="680" y="320" width="180" height="70" as="geometry" />
        </mxCell>
        <mxCell id="EV_o93qOQ871rjCAl6vP-19" value="&lt;font style=&quot;font-size: 21px; line-height: 0.3;&quot;&gt;Split / Packed Vq&lt;/font&gt;" style="rounded=0;whiteSpace=wrap;html=1;labelBackgroundColor=none;fontSize=26;fillColor=#fff2cc;strokeColor=#d6b656;" parent="1" vertex="1">
          <mxGeometry x="910" y="320" width="170" height="70" as="geometry" />
        </mxCell>
        <mxCell id="EV_o93qOQ871rjCAl6vP-22" value="Net" style="rounded=0;whiteSpace=wrap;html=1;labelBackgroundColor=none;fontSize=26;fillColor=#fff2cc;strokeColor=#d6b656;" parent="1" vertex="1">
          <mxGeometry x="650" y="70" width="120" height="60" as="geometry" />
        </mxCell>
        <mxCell id="EV_o93qOQ871rjCAl6vP-23" value="Blk" style="rounded=0;whiteSpace=wrap;html=1;labelBackgroundColor=none;fontSize=26;fillColor=#fff2cc;strokeColor=#d6b656;" parent="1" vertex="1">
          <mxGeometry x="820" y="70" width="120" height="60" as="geometry" />
        </mxCell>
        <mxCell id="EV_o93qOQ871rjCAl6vP-24" value="..." style="rounded=0;whiteSpace=wrap;html=1;labelBackgroundColor=none;fontSize=26;fillColor=#fff2cc;strokeColor=#d6b656;" parent="1" vertex="1">
          <mxGeometry x="970" y="70" width="120" height="60" as="geometry" />
        </mxCell>
      </root>
    </mxGraphModel>
  </diagram>
</mxfile>
